# xmcd CD database file
#
# Track frame offsets:
#	150
#	6924
#	49076
#	93269
#	111921
#	141046
#	158278
#	171280
#	188643
#	231801
#	247431
#	267005
#	281611
#	301764
#	315675
#	334506
#
# Disc length: 4628 seconds
#
# Revision: 0
# Processed by: cddbd v1.5.2PL0 Copyright (c) Steve Scherf et al.
# Submitted via: CDex 1.70beta2
#
DISCID=d1121210
DTITLE=Dizzy Gillespie - Dizzy digs Paris CD1
DYEAR=2006
DGENRE=Jazz
TTITLE0=Intro (Rehearsal Blues)
TTITLE1=The Champ
TTITLE2=Good Bait
TTITLE3=Swing Low, Sweet Cadillac
TTITLE4=Ghost of a Chance
TTITLE5=Lady Be Good
TTITLE6=Mon Homme
TTITLE7=(I've Got) The Bluest Blues
TTITLE8=Birk's Works
TTITLE9=Ooh-Shoo-Be-Doo-Be
TTITLE10=They Can't Take That Away From Me
TTITLE11=Embraceable You
TTITLE12=Play Fiddle Play
TTITLE13=I Can't Get Started
TTITLE14=Tin Tin Deo
TTITLE15=On The Sunny Side of the Street
EXTD=YEAR: 2006
EXTT0=
EXTT1=
EXTT2=
EXTT3=
EXTT4=
EXTT5=
EXTT6=
EXTT7=
EXTT8=
EXTT9=
EXTT10=
EXTT11=
EXTT12=
EXTT13=
EXTT14=
EXTT15=
PLAYORDER=
